<?xml version="1.0" encoding="UTF-8" standalone="no"?>
<!DOCTYPE svg PUBLIC "-//W3C//DTD SVG 1.1//EN"
 "http://www.w3.org/Graphics/SVG/1.1/DTD/svg11.dtd">
<!-- Generated by graphviz version 2.38.0 (20140413.2041)
 -->
<!-- Title: %3 Pages: 1 -->
<svg width="83pt" height="210pt"
 viewBox="0.00 0.00 82.95 209.72" xmlns="http://www.w3.org/2000/svg" xmlns:xlink="http://www.w3.org/1999/xlink">
<g id="graph0" class="graph" transform="scale(1 1) rotate(0) translate(4 205.723)">
<title>%3</title>
<polygon fill="white" stroke="none" points="-4,4 -4,-205.723 78.9533,-205.723 78.9533,4 -4,4"/>
<!-- A -->
<g id="node1" class="node"><title>A</title>
<polygon fill="lightgray" stroke="black" points="26.9767,-201.723 3.97666,-201.723 3.97666,-183.723 26.9767,-183.723 26.9767,-201.723"/>
<text text-anchor="middle" x="15.4767" y="-190.523" font-family="Times,serif" font-size="9.00">A</text>
</g>
<!-- A XOR B -->
<g id="node3" class="node"><title>A XOR B</title>
<ellipse fill="lightblue" stroke="black" cx="37.4767" cy="-37.4767" rx="37.4533" ry="37.4533"/>
<text text-anchor="middle" x="37.4767" y="-35.2767" font-family="Times,serif" font-size="9.00">A XOR B</text>
</g>
<!-- A&#45;&gt;A XOR B -->
<g id="edge3" class="edge"><title>A&#45;&gt;A XOR B</title>
<path fill="none" stroke="red" stroke-width="0.427228" d="M14.2798,-183.637C13.0411,-174.828 11.1896,-160.311 10.4767,-147.723 9.55259,-131.407 7.57824,-127.036 10.4767,-110.953 12.2265,-101.244 15.1961,-91.1371 18.5412,-81.6614"/>
<polygon fill="red" stroke="red" stroke-width="0.427228" points="21.9078,-82.6507 22.1275,-72.0581 15.3501,-80.2017 21.9078,-82.6507"/>
</g>
<!-- 44 -->
<g id="node4" class="node"><title>44</title>
<ellipse fill="white" stroke="black" cx="37.4767" cy="-129.338" rx="18.2703" ry="18.2703"/>
<text text-anchor="middle" x="37.4767" y="-127.138" font-family="Times,serif" font-size="9.00">44</text>
</g>
<!-- A&#45;&gt;44 -->
<g id="edge1" class="edge"><title>A&#45;&gt;44</title>
<path fill="none" stroke="green" stroke-width="0.590432" d="M18.3528,-183.698C20.8511,-176.727 24.6126,-166.232 28.1404,-156.388"/>
<polygon fill="green" stroke="green" stroke-width="0.590432" points="31.4558,-157.511 31.5349,-146.917 24.8662,-155.15 31.4558,-157.511"/>
</g>
<!-- B -->
<g id="node2" class="node"><title>B</title>
<polygon fill="lightgray" stroke="black" points="69.9767,-201.723 46.9767,-201.723 46.9767,-183.723 69.9767,-183.723 69.9767,-201.723"/>
<text text-anchor="middle" x="58.4767" y="-190.523" font-family="Times,serif" font-size="9.00">B</text>
</g>
<!-- B&#45;&gt;A XOR B -->
<g id="edge4" class="edge"><title>B&#45;&gt;A XOR B</title>
<path fill="none" stroke="red" stroke-width="0.241227" d="M59.9127,-183.647C61.3989,-174.847 63.6205,-160.338 64.4767,-147.723 65.5832,-131.418 67.3751,-127.036 64.4767,-110.953 62.7268,-101.244 59.7572,-91.1371 56.4122,-81.6614"/>
<polygon fill="red" stroke="red" stroke-width="0.241227" points="59.6032,-80.2017 52.8258,-72.0581 53.0456,-82.6507 59.6032,-80.2017"/>
</g>
<!-- B&#45;&gt;44 -->
<g id="edge2" class="edge"><title>B&#45;&gt;44</title>
<path fill="none" stroke="green" stroke-width="0.805468" d="M55.7313,-183.698C53.3465,-176.727 49.756,-166.232 46.3885,-156.388"/>
<polygon fill="green" stroke="green" stroke-width="0.805468" points="49.6968,-155.246 43.1483,-146.917 43.0737,-157.511 49.6968,-155.246"/>
</g>
<!-- 44&#45;&gt;A XOR B -->
<g id="edge5" class="edge"><title>44&#45;&gt;A XOR B</title>
<path fill="none" stroke="green" stroke-width="0.78882" d="M37.4767,-110.584C37.4767,-103.226 37.4767,-94.3101 37.4767,-85.2927"/>
<polygon fill="green" stroke="green" stroke-width="0.78882" points="40.9768,-85.1462 37.4767,-75.1462 33.9768,-85.1463 40.9768,-85.1462"/>
</g>
</g>
</svg>
